P2
10 10
255
97 91 98 94 91 99 97 97 99 99 97 93 100 96 95 101 99 100 96 102 95 93 100 95 100 99 97 101 101 96 96 94 99 93 103 97 96 101 99 102 98 96 99 95 104 98 99 101 97 103 97 96 98 96 103 99 101 101 100 100 96 97 99 99 100 100 103 99 101 106 97 99 102 104 100 102 103 98 101 100 98 98 99 101 101 101 102 103 101 104 99 100 100 101 101 100 101 102 102 104 