P3
47 17
255
45 106 197 46 105 195 46 108 195 44 108 195 42 108 194 46 108 195 53 110 199 56 110 198 52 108 195 52 110 194 53 116 195 54 116 193 56 113 194 55 110 193 59 110 189 60 111 190 64 111 183 77 114 169 85 107 144 0 6 28 40 51 69 67 79 105 87 101 140 110 124 173 101 117 169 103 119 168 103 118 161 96 113 156 87 108 153 69 92 142 30 62 103 23 46 78 40 55 78 49 57 80 67 80 115 94 116 166 112 147 211 84 128 201 80 127 209 76 124 209 71 121 206 68 123 203 63 123 195 63 123 193 64 120 195 68 119 198 63 124 207 45 113 194 48 114 198 43 110 197 41 112 200 44 115 205 43 112 205 49 114 206 56 117 208 52 114 201 50 117 198 51 120 197 51 119 190 61 125 196 66 126 198 72 119 199 79 126 204 90 134 205 75 111 163 49 72 104 53 70 90 40 57 77 41 56 89 29 40 85 8 14 66 14 14 66 12 11 55 26 26 62 20 29 62 2 20 58 8 36 76 42 59 87 56 67 95 44 45 73 27 19 43 29 19 43 9 5 32 24 31 75 93 114 179 98 136 219 81 132 223 72 132 218 74 136 213 66 127 194 68 128 191 71 126 191 67 121 191 66 124 198 51 110 188 48 112 199 49 119 214 46 116 212 48 113 203 56 119 196 54 122 193 48 122 193 56 128 202 56 112 186 78 118 187 83 123 185 75 124 190 68 131 198 89 132 185 106 137 201 47 72 136 25 57 108 36 80 125 42 92 143 47 86 143 24 49 89 32 45 61 25 33 46 74 78 113 85 87 135 40 43 76 20 23 38 50 58 71 88 95 121 77 112 144 71 102 131 75 101 124 32 51 66 55 65 77 71 73 86 38 35 54 13 9 36 44 42 82 116 119 172 116 130 193 104 131 202 102 141 218 85 138 214 69 132 209 60 129 206 67 125 207 47 117 202 43 121 204 37 115 197 47 116 194 59 117 191 56 113 184 56 118 193 53 124 204 50 122 207 63 129 215 69 125 208 73 126 202 73 129 203 79 141 214 75 134 202 9 60 123 38 85 139 63 114 159 57 118 162 53 114 168 49 100 155 78 112 149 37 55 69 17 26 31 35 38 55 41 42 70 20 24 49 38 50 62 24 44 53 21 49 61 26 47 78 31 51 78 32 49 69 27 39 53 16 23 33 37 40 47 41 39 50 31 27 42 23 18 41 50 44 78 99 93 137 83 83 135 67 69 126 50 56 116 98 108 169 118 130 190 85 125 197 43 119 207 38 119 198 48 121 190 63 122 188 68 121 191 64 119 199 64 122 206 63 123 211 62 124 211 64 128 218 62 129 218 67 132 214 89 146 217 63 113 174 6 66 138 45 101 158 58 111 153 56 112 149 45 106 151 55 117 168 62 116 163 65 105 141 28 50 74 42 52 64 53 56 61 16 17 22 32 36 45 39 53 62 37 64 71 7 45 48 5 2 29 0 0 21 10 11 29 24 26 38 14 15 20 51 52 54 35 35 35 45 41 42 50 44 48 66 53 63 53 35 51 51 26 48 47 17 45 57 22 54 47 7 41 95 55 89 111 137 198 48 115 202 59 122 201 68 118 187 68 116 188 62 118 203 56 119 216 64 123 217 78 120 202 88 125 196 80 122 194 80 136 210 90 147 214 49 89 138 36 59 90 68 100 159 74 105 149 57 86 118 42 70 107 51 82 126 27 62 102 25 61 95 24 56 95 25 45 95 41 53 95 17 23 39 29 31 26 10 13 6 7 12 16 56 69 77 51 69 73 64 47 63 60 46 59 43 31 41 52 45 52 47 42 46 44 43 41 41 40 36 37 36 31 31 26 20 22 13 8 22 7 4 19 0 0 27 0 1 26 0 0 34 0 2 87 44 54 77 106 164 59 119 205 64 112 196 76 117 199 74 118 205 64 120 215 63 127 224 75 129 215 94 127 194 116 136 187 126 144 192 97 124 171 62 85 127 35 42 70 59 51 66 63 57 101 53 49 82 55 51 78 100 93 126 72 65 99 54 50 73 94 99 118 73 83 119 92 102 164 128 136 198 75 80 109 0 2 0 25 23 11 36 27 28 41 28 38 49 36 45 60 42 42 52 36 36 41 27 27 26 14 16 25 14 18 17 8 11 8 2 2 11 7 4 10 6 3 10 7 2 8 3 0 12 5 0 17 8 3 13 2 0 14 0 0 47 33 33 99 136 204 57 122 206 63 118 211 71 120 213 75 121 209 83 129 206 97 140 208 100 136 194 63 91 141 43 62 105 15 21 57 21 14 45 53 34 62 66 40 67 66 33 60 54 28 65 51 31 59 62 47 70 45 25 50 59 34 55 55 28 37 40 21 27 32 22 47 51 47 97 130 131 179 110 113 132 26 27 21 18 14 5 31 16 19 38 12 21 32 1 9 14 4 0 12 2 0 12 1 0 12 0 0 13 1 5 15 2 9 15 2 11 11 0 8 12 3 8 15 9 11 10 6 7 4 2 3 2 2 2 9 10 12 20 24 25 26 31 34 49 83 157 56 126 212 66 130 217 75 126 205 99 135 195 91 110 152 41 52 84 16 24 60 27 39 79 21 30 69 45 40 72 66 44 65 74 36 57 75 29 57 78 31 65 76 36 62 72 44 66 38 25 43 30 20 31 50 33 39 59 35 35 63 38 41 45 25 36 33 22 38 9 3 15 6 2 1 11 8 1 8 4 1 13 4 7 18 1 7 24 0 5 11 7 0 11 7 0 12 5 0 17 9 7 9 0 2 11 0 7 17 4 14 14 1 11 14 1 10 12 1 9 8 0 4 13 7 11 6 1 5 1 0 2 6 6 8 8 9 13 9 27 93 66 123 200 79 121 181 83 103 138 57 60 77 40 36 51 55 50 73 61 50 82 81 61 89 98 71 90 98 72 83 96 73 81 68 38 46 64 19 26 79 20 24 75 10 6 65 20 27 60 42 54 36 34 39 30 29 24 28 19 10 33 18 15 21 7 7 13 2 0 8 0 0 16 6 0 12 4 1 8 6 7 9 9 11 3 1 6 11 1 10 11 8 3 5 2 0 6 2 0 12 6 6 12 6 8 14 8 12 9 3 7 11 5 9 10 4 8 9 3 5 9 3 3 7 1 1 14 9 6 8 3 0 12 7 4 6 1 0 43 48 86 76 102 161 181 177 204 255 234 231 88 54 44 66 50 63 52 52 90 72 57 98 105 58 78 98 31 25 100 46 34 152 127 120 195 182 173 250 218 193 243 189 145 247 164 130 91 31 20 32 2 10 15 9 13 1 3 0 6 7 0 3 0 0 4 0 0 11 6 0 12 3 0 14 2 4 15 4 12 1 0 2 1 5 4 3 4 8 6 4 15 11 6 10 11 6 10 11 7 8 8 6 7 7 5 6 6 6 4 6 6 4 6 6 4 4 6 3 1 3 0 26 28 25 42 43 38 30 31 25 0 1 0 5 5 0 9 9 0 31 40 49 54 55 99 255 244 255 255 204 190 113 69 58 67 55 69 50 58 97 33 25 64 121 77 92 201 131 121 235 174 155 255 246 230 255 254 236 255 254 218 177 144 90 95 27 0 44 0 0 26 0 3 6 0 0 3 3 0 1 1 0 14 13 11 13 15 14 1 1 0 9 5 2 11 1 9 10 0 13 12 7 14 14 14 12 6 6 4 4 2 5 5 2 11 5 2 9 4 2 5 3 1 2 3 3 1 3 4 0 3 4 0 2 4 0 1 3 0 9 11 10 53 57 56 27 31 30 43 47 46 7 13 9 0 3 0 43 50 43 37 49 47 114 119 159 40 21 40 46 17 21 55 34 33 23 18 24 27 30 45 61 60 78 83 63 75 57 21 23 88 47 41 103 69 59 80 58 45 25 13 0 9 2 0 24 1 0 18 3 0 5 0 0 6 6 4 6 5 3 14 9 13 18 15 24 26 29 34 10 15 9 2 5 0 10 6 5 11 3 14 6 0 11 4 0 3 8 5 0 9 5 0 2 5 12 2 3 8 1 2 4 1 1 0 2 1 0 5 2 0 7 2 0 7 2 0 5 0 0 7 1 5 10 5 11 33 30 37 17 16 24 16 16 24 40 41 46 30 33 38 32 40 43 73 103 153 19 38 71 0 3 22 0 0 5 3 0 0 9 2 0 3 0 0 2 0 11 4 0 9 13 0 0 21 0 0 21 0 0 9 0 7 2 8 24 0 6 6 0 8 6 0 9 4 0 1 2 12 9 20 53 48 68 62 61 79 65 69 78 30 39 34 3 11 0 5 7 0 7 3 4 4 0 7 4 0 4 10 5 0 6 3 0 0 0 5 0 0 4 2 2 4 7 6 4 13 9 6 18 13 9 24 16 13 27 19 16 19 9 10 7 0 0 19 9 17 26 16 25 30 22 33 25 17 30 37 31 43 40 34 46 31 28 39 86 135 193 40 79 118 0 7 25 1 6 10 7 2 0 7 0 0 6 0 0 7 1 5 7 0 0 16 2 2 16 0 0 9 0 0 9 4 11 0 1 14 0 14 4 3 13 2 1 2 0 6 1 8 11 3 24 67 65 89 52 57 76 43 52 61 26 36 38 10 19 16 6 11 5 2 1 0 9 3 5 9 3 7 8 2 2 4 1 0 8 6 9 9 7 10 10 8 11 9 7 8 7 6 4 6 5 1 7 6 2 8 7 2 4 3 0 1 0 0 1 0 0 8 6 9 4 1 8 12 9 18 15 12 23 19 15 29 32 24 35 93 139 191 100 135 167 0 9 20 0 0 2 4 0 3 5 0 9 9 2 9 13 0 0 17 0 0 14 0 0 9 1 0 3 3 3 5 4 2 6 2 0 0 3 0 6 0 0 16 1 0 11 0 5 20 11 32 27 28 46 39 48 55 42 52 54 18 25 33 7 11 22 6 9 16 5 7 6 4 0 0 3 0 0 3 0 2 0 0 4 4 0 0 5 0 1 8 4 5 9 4 8 6 4 7 5 6 8 5 9 8 7 12 8 8 15 8 7 17 9 10 19 14 8 17 14 20 28 30 22 29 35 29 36 46 33 39 51 33 33 43 84 110 147 80 98 122 78 86 99 47 47 57 16 14 25 3 3 11 1 0 4 7 0 0 14 1 0 10 0 0 12 3 4 18 16 17 5 7 2 7 10 1 9 11 6 15 10 6 15 0 0 10 0 0 9 3 13 10 15 19 26 35 30 29 32 23 21 20 18 2 0 6 1 1 13 6 9 16 3 3 5 3 1 2 3 3 3 1 5 6 6 3 0 10 6 3 14 12 13 18 16 21 19 18 26 21 21 29 22 25 32 24 29 33 24 33 32 21 32 28 31 41 40 32 44 44 28 39 45 22 32 44 32 43 61 42 53 75 53 69 82 