P2
47 17
255
100 99 101 101 100 101 104 105 102 104 108 108 107 104 105 106 106 110 105 6 50 78 101 125 117 119 118 112 107 91 58 43 53 57 80 115 144 124 123 120 117 117 115 115 114 114 117 104 106 102 103 106 104 107 111 107 109 111 110 117 118 115 122 130 107 69 68 55 55 41 16 18 14 29 29 19 33 57 67 47 22 23 8 33 114 134 128 125 128 119 120 119 115 117 103 105 111 108 106 111 113 111 118 105 114 119 118 122 127 135 71 54 74 85 82 47 43 32 80 90 45 23 57 95 107 98 97 48 64 74 37 12 45 122 132 130 138 132 124 120 119 108 110 104 107 110 106 110 115 113 121 119 120 122 133 126 54 79 106 108 105 93 107 52 24 39 44 25 48 40 44 45 49 47 37 22 40 40 29 21 48 97 87 73 59 110 132 122 109 107 110 114 115 113 116 117 117 121 121 124 139 107 58 93 103 103 96 107 108 99 47 51 56 17 36 51 59 37 5 2 12 26 15 52 35 42 46 56 40 33 25 32 18 66 136 107 114 112 111 112 113 117 117 122 118 129 140 84 56 97 102 82 67 79 57 56 52 44 53 23 30 12 11 67 65 52 50 34 47 43 43 40 36 27 15 10 4 6 6 7 54 104 112 108 114 115 115 120 124 125 135 144 122 83 43 54 61 52 54 97 69 53 99 83 104 139 81 1 23 29 31 39 46 39 30 17 17 10 3 8 7 7 4 6 10 4 3 36 133 114 113 116 118 125 136 133 89 61 22 18 40 47 42 36 37 52 31 41 34 25 26 51 134 114 26 14 19 18 8 6 4 3 3 4 5 5 3 5 10 7 2 2 10 23 30 81 117 123 121 132 109 52 25 39 31 43 50 46 41 43 46 52 29 23 37 40 44 30 25 5 3 8 5 6 5 5 7 7 6 11 2 3 7 4 4 4 2 9 2 0 6 9 28 116 116 101 61 38 53 55 67 78 78 78 45 29 33 24 30 47 35 29 20 21 10 4 2 8 5 6 9 2 4 8 2 3 7 7 10 5 7 6 4 4 2 10 4 8 2 50 101 180 238 61 54 55 63 69 45 57 132 184 223 197 179 43 9 11 2 6 1 1 7 5 5 7 0 4 4 5 7 7 8 6 5 6 6 6 5 2 27 42 30 1 5 8 39 58 247 214 78 59 59 30 87 145 186 247 253 252 147 40 9 6 1 3 1 13 15 1 6 4 3 9 14 6 3 3 3 3 1 3 3 3 3 2 11 56 30 46 11 2 48 46 121 26 23 38 19 30 62 68 29 55 76 62 15 3 6 6 1 6 5 10 16 29 14 4 7 5 2 1 5 5 5 3 2 1 1 2 3 3 1 3 6 31 17 17 41 33 39 100 36 4 0 1 3 1 1 2 3 4 4 2 8 5 6 7 1 10 51 63 69 37 9 6 4 1 1 6 3 0 0 2 6 10 14 17 20 11 1 12 19 24 20 33 36 29 129 74 7 5 3 1 1 3 1 5 3 2 6 2 10 10 2 3 6 67 57 51 34 17 10 1 4 5 3 2 7 8 9 7 6 5 6 7 3 0 0 7 2 10 13 17 26 133 130 8 0 1 2 4 3 4 3 3 3 4 3 2 1 4 3 14 29 47 50 24 11 9 7 1 1 1 0 1 1 5 5 5 6 8 11 13 14 17 15 26 28 35 39 34 107 96 85 48 15 4 1 1 4 2 5 16 6 9 10 11 3 2 5 14 33 31 20 1 2 9 3 1 3 4 3 7 12 17 19 22 25 28 31 29 39 41 37 31 42 52 67 