P2
128 96
255
94 97 96 98 99 99 100 102 101 102 103 103 103 104 104 104 103 103 105 105 105 105 106 107 106 106 106 107 109 108 109 110 110 111 108 108 111 107 111 114 114 115 117 100 118 117 117 117 106 95 95 95 132 116 114 96 119 84 84 127 96 101 122 118 112 105 118 117 104 112 111 109 108 109 109 108 109 109 111 112 111 112 111 111 111 113 113 114 113 112 113 113 112 114 110 112 112 111 111 111 111 109 111 110 110 110 109 109 111 110 110 111 109 109 111 109 109 110 109 110 107 108 107 107 105 104 104 103 94 96 99 98 99 102 102 102 103 102 103 103 105 105 104 106 105 105 105 105 107 107 107 106 108 108 110 107 109 111 111 110 110 112 112 113 112 115 114 116 118 122 121 98 110 114 125 128 101 105 86 85 119 108 109 108 92 84 93 112 91 100 125 127 108 91 110 108 98 114 115 111 110 109 108 110 111 111 111 113 111 111 111 113 112 113 113 114 114 114 114 114 112 113 113 113 111 113 111 111 110 112 109 113 110 111 108 110 110 110 110 110 111 110 110 111 109 108 109 110 108 107 108 106 106 105 106 105 96 97 101 100 100 102 103 102 103 103 103 105 104 105 105 104 106 105 105 105 108 108 108 108 109 107 109 109 110 112 112 114 114 112 117 120 109 119 120 122 120 123 116 116 111 132 128 126 117 112 81 95 105 123 106 83 93 89 97 106 91 117 123 123 99 103 88 94 102 121 115 112 111 110 111 110 111 112 112 112 113 112 112 112 113 113 112 113 113 113 113 113 112 113 113 112 113 112 111 112 111 111 111 111 110 110 109 110 109 109 111 111 111 110 109 109 110 108 110 109 109 109 109 108 110 108 106 105 97 101 100 100 102 102 102 104 104 104 105 103 105 105 105 105 107 105 106 107 107 108 108 109 110 110 109 111 113 114 107 115 116 106 121 122 103 115 128 130 123 113 90 58 91 141 117 129 121 113 123 89 104 125 103 96 96 85 92 94 116 112 118 115 84 117 86 81 98 121 114 115 112 111 109 112 110 111 111 111 112 113 113 112 113 113 113 114 112 116 111 115 113 113 113 114 112 113 111 111 112 109 109 108 109 111 108 110 109 109 111 111 110 112 110 110 109 109 108 110 109 110 109 108 108 108 109 105 98 100 100 102 102 104 102 104 104 104 104 105 105 104 107 105 108 108 107 108 108 108 108 109 112 110 112 111 115 113 108 114 116 102 117 124 101 114 129 121 69 87 93 62 81 75 117 135 116 68 36 99 116 110 104 82 89 98 95 89 108 109 103 105 90 114 75 93 99 124 110 113 112 111 112 110 112 113 112 113 113 112 112 113 113 112 114 113 112 114 114 112 113 113 114 112 114 111 113 112 110 110 109 109 109 109 111 111 110 110 110 111 111 111 110 111 110 109 108 108 109 110 108 110 110 108 108 107 99 100 101 101 102 102 103 104 104 105 105 105 104 105 106 107 106 110 108 107 109 108 109 110 111 110 110 112 117 114 102 113 117 113 100 106 105 111 130 112 38 27 29 29 18 51 112 130 131 16 21 45 129 108 117 129 78 106 80 97 112 101 89 96 103 96 101 86 113 96 125 101 116 113 111 112 111 111 112 112 112 112 113 112 112 112 111 113 112 113 113 112 113 114 112 114 112 112 112 110 111 109 111 110 109 111 110 110 110 111 111 111 110 110 110 111 109 110 109 107 108 108 109 107 108 107 109 107 99 100 102 102 104 103 104 103 104 104 105 105 105 107 106 108 106 106 107 108 108 108 109 111 110 112 116 111 115 117 89 113 117 120 90 91 78 113 138 93 21 21 26 31 33 22 105 123 126 18 20 48 122 108 110 113 108 58 96 123 115 90 93 108 95 80 109 96 105 102 108 109 116 116 113 112 112 111 111 111 112 112 112 112 112 112 114 112 111 112 113 114 112 111 112 113 113 110 112 110 110 112 110 111 111 111 110 109 111 110 111 110 109 109 110 110 110 109 110 111 111 110 109 110 110 108 109 107 99 101 101 102 104 103 104 104 105 105 105 106 105 107 108 108 107 108 109 109 108 109 110 112 113 114 119 102 118 120 106 82 95 128 94 20 23 92 76 32 37 40 48 61 55 54 59 109 140 26 25 75 120 101 88 91 110 75 94 129 109 109 97 86 107 86 105 96 99 123 104 103 111 116 115 113 112 113 112 112 112 112 113 111 111 113 111 113 112 111 112 114 111 113 114 113 113 111 111 110 109 110 112 109 109 111 109 111 112 111 110 111 110 110 111 111 112 112 111 109 110 109 110 108 108 106 108 108 100 101 102 105 103 104 104 106 106 106 107 107 107 107 107 108 106 108 108 109 109 110 112 110 108 113 124 102 116 117 114 65 101 113 106 22 28 37 40 39 49 50 58 51 40 59 37 96 142 19 22 84 137 130 87 115 92 70 83 111 125 101 102 79 109 110 96 71 110 98 111 103 120 118 116 116 114 115 117 108 115 114 112 112 110 113 111 111 113 112 112 112 111 112 113 112 114 112 111 110 111 110 112 111 110 110 111 110 110 110 111 110 110 110 113 111 111 111 111 112 110 109 109 108 108 108 108 107 101 102 103 103 104 105 106 107 107 107 107 107 106 107 108 108 107 107 109 109 111 111 111 112 119 108 114 105 87 120 91 75 92 107 104 28 37 28 37 43 44 48 52 54 42 34 46 48 108 22 31 81 138 120 82 116 107 77 69 104 133 111 117 89 118 104 101 89 98 108 83 100 116 118 112 121 121 120 121 111 118 114 114 112 113 112 112 111 112 110 110 111 111 111 111 110 112 111 111 112 109 109 111 110 110 112 111 110 110 111 111 111 111 111 112 111 111 111 111 111 110 109 109 109 108 107 108 107 102 101 104 104 103 106 104 105 106 109 107 106 107 106 108 110 106 109 109 110 111 113 110 114 119 100 116 121 81 88 91 77 95 94 27 37 28 25 28 22 60 49 56 40 37 36 35 50 54 19 24 74 127 110 112 82 104 104 93 122 144 118 100 137 104 85 78 79 121 85 93 89 118 126 117 127 132 132 118 107 123 116 115 113 113 112 111 112 112 111 111 111 111 112 111 111 112 111 111 110 112 109 113 110 110 112 111 110 110 110 111 111 110 113 110 110 111 110 110 110 110 109 108 108 107 106 107 106 101 103 104 103 104 106 106 107 108 108 109 107 109 107 110 108 108 109 110 112 112 112 107 118 118 98 108 115 106 59 79 93 110 31 37 44 27 24 23 19 27 47 46 40 32 33 36 34 73 25 38 64 146 141 104 98 79 118 73 115 118 96 98 94 85 87 82 75 74 73 74 103 123 128 117 99 85 81 90 88 127 118 115 113 110 112 113 111 111 112 113 111 111 112 112 112 111 111 111 112 110 111 111 111 110 110 111 111 109 111 110 111 112 111 110 111 110 111 110 109 109 109 108 108 107 106 108 107 101 103 104 103 105 106 108 105 110 101 112 106 111 110 112 110 111 111 113 108 111 116 111 120 126 100 106 95 96 73 72 81 37 40 34 36 30 34 36 25 25 35 40 41 35 30 38 50 41 27 23 24 86 123 100 119 97 99 82 139 141 73 95 106 82 98 108 108 125 118 93 118 135 133 127 106 106 100 86 70 133 121 116 115 112 110 113 111 111 112 112 112 112 111 110 110 110 111 112 112 112 112 111 111 112 112 111 111 110 112 112 112 111 112 112 110 111 111 111 109 110 110 109 108 107 106 106 106 102 104 105 104 106 108 108 103 102 100 109 111 115 113 110 113 112 111 115 105 107 109 106 122 123 108 95 85 94 84 88 67 28 37 44 33 26 51 40 40 40 39 43 51 41 26 41 32 25 29 30 20 106 116 109 96 80 123 51 128 107 61 100 69 110 83 78 109 109 111 120 128 128 133 101 32 22 16 30 62 119 124 119 116 111 112 112 110 111 112 112 112 111 111 112 113 113 112 112 112 113 111 110 112 111 112 111 112 110 112 112 112 111 112 112 112 111 111 111 110 111 109 108 108 107 108 108 109 103 104 105 107 110 111 103 103 93 107 97 114 101 108 118 113 115 115 119 100 115 99 103 115 117 127 109 92 120 85 97 32 35 42 47 35 32 52 27 32 40 87 90 66 49 32 43 53 30 42 32 35 86 117 126 103 124 99 40 133 62 113 69 105 120 73 116 119 107 102 99 135 124 137 76 81 56 51 113 115 76 133 123 117 115 112 111 113 111 112 112 112 114 113 111 111 112 110 110 112 114 112 111 111 112 113 112 113 113 112 110 111 112 112 112 112 112 110 109 111 110 109 109 109 107 107 107 107 105 108 109 108 107 115 108 93 97 78 104 114 85 97 117 119 117 115 110 102 104 108 103 103 116 118 122 92 126 115 83 30 58 65 55 40 35 47 25 39 58 118 134 69 38 30 33 91 53 40 32 35 40 130 126 93 115 107 90 108 41 101 99 83 74 83 115 107 107 119 111 105 118 89 61 83 85 85 123 123 33 132 128 119 115 116 111 113 112 112 112 111 111 110 111 111 110 112 113 113 113 112 111 111 111 111 112 113 113 112 111 112 112 112 111 111 111 112 111 110 110 111 110 107 109 107 108 106 110 113 108 95 103 109 107 92 81 67 110 95 65 94 120 122 126 118 108 111 102 102 91 99 116 113 110 116 116 111 70 30 91 143 67 35 32 28 27 23 22 12 20 26 23 27 16 25 88 26 30 28 34 101 124 81 92 85 75 93 68 137 141 109 86 92 76 95 112 94 92 88 112 66 51 72 83 80 83 87 64 87 130 122 118 114 112 111 111 112 112 113 112 112 113 110 112 112 111 113 112 112 112 111 111 113 111 112 111 112 111 112 111 112 112 111 111 109 110 109 112 109 109 109 109 107 107 108 107 100 112 107 103 103 125 101 72 69 103 82 70 101 118 108 74 98 111 122 89 103 97 97 96 113 111 101 133 87 49 53 58 30 25 25 22 15 16 20 22 25 25 24 30 29 31 19 20 28 27 33 42 58 109 114 97 97 65 57 144 128 126 76 89 85 98 92 99 108 106 116 68 67 51 43 89 69 62 48 46 40 139 127 119 116 113 112 110 112 111 113 112 114 111 111 112 112 110 112 112 111 111 111 113 112 112 112 113 113 112 112 111 112 112 111 111 111 110 110 111 110 109 108 108 108 109 108 94 85 76 83 109 101 84 108 58 103 98 81 78 111 87 24 15 67 115 113 93 98 112 96 99 98 113 99 40 13 20 22 23 25 25 27 29 35 28 32 34 41 51 48 40 55 36 34 24 20 21 26 104 21 155 134 84 100 22 96 129 121 91 113 113 102 112 138 107 103 135 97 51 66 29 57 47 62 71 64 46 49 97 132 123 117 115 114 112 112 112 111 113 111 114 113 112 113 112 114 113 112 112 110 110 113 111 114 112 113 112 112 111 112 112 111 112 111 110 111 110 109 109 110 108 109 110 108 102 81 118 108 97 95 89 71 65 95 97 94 63 64 96 83 104 133 108 106 104 93 125 77 81 100 83 90 106 46 24 23 27 34 35 43 29 35 54 36 37 51 48 42 56 64 42 49 35 22 26 20 31 36 86 127 71 130 50 116 125 145 75 141 114 118 110 111 117 121 108 58 48 66 67 49 58 76 84 111 66 54 48 143 126 120 117 113 111 113 112 113 114 113 113 114 114 113 111 113 112 111 112 111 112 113 113 113 113 112 112 112 111 112 112 111 111 110 110 109 108 110 110 109 109 109 109 110 105 99 78 96 97 100 110 94 70 79 104 67 81 140 136 113 114 99 80 65 71 84 78 63 101 126 135 75 89 32 37 42 42 51 34 39 28 38 39 33 51 52 46 35 55 79 44 44 44 52 31 21 22 29 59 109 70 144 53 123 136 119 122 75 121 94 75 94 105 87 61 53 64 54 50 31 39 50 85 87 108 53 48 98 131 123 118 115 113 114 111 114 114 113 114 114 113 113 113 113 113 113 112 111 111 112 111 112 112 111 113 112 112 111 110 112 110 110 109 109 109 109 109 111 109 109 109 110 109 121 114 76 84 90 92 88 103 96 97 34 133 140 133 117 88 90 59 51 51 94 40 108 123 101 91 75 105 69 35 35 45 49 30 36 38 39 52 38 52 44 31 38 55 80 56 27 43 38 39 26 22 20 25 30 42 87 93 113 144 104 77 111 109 123 101 99 133 82 84 92 65 69 48 67 101 93 149 124 76 54 72 50 143 129 121 115 115 113 113 113 113 113 114 114 114 114 114 114 115 112 114 113 112 111 111 112 110 112 111 112 112 112 112 110 111 110 109 109 109 109 109 110 110 108 109 108 108 104 119 118 92 95 79 50 77 100 46 74 135 121 106 87 88 26 30 37 24 65 110 145 90 109 100 103 64 63 38 39 36 37 45 52 51 38 45 48 58 55 35 50 44 60 43 39 42 26 22 14 16 18 23 28 30 16 77 149 143 65 153 82 93 123 121 100 107 79 98 135 190 132 105 121 161 179 118 146 117 56 64 57 107 132 123 116 114 112 112 112 113 114 114 114 114 113 114 113 113 111 113 113 113 111 112 111 111 111 110 112 110 109 111 111 110 110 109 110 109 109 109 110 108 108 109 107 91 104 85 92 85 64 102 66 90 87 50 87 137 125 103 94 62 72 98 60 15 84 100 78 103 100 79 118 53 36 30 36 29 47 34 62 54 42 43 59 59 36 59 43 49 65 33 26 46 24 23 23 51 27 19 32 34 21 26 38 75 143 114 124 141 130 103 118 64 95 116 80 91 67 66 50 41 39 49 53 52 51 56 52 57 145 125 121 116 114 114 114 114 115 115 113 114 114 113 114 112 112 112 112 113 111 113 111 110 110 111 111 110 111 111 110 112 110 110 110 111 110 109 109 109 108 107 106 96 84 95 82 95 52 108 84 77 76 96 78 135 127 104 64 83 77 76 46 22 27 119 66 101 92 67 95 23 39 35 33 35 37 32 42 52 75 38 35 48 25 47 59 57 70 47 24 33 24 29 24 14 30 28 28 19 28 34 25 18 43 123 116 129 131 124 67 23 46 50 61 61 61 60 54 63 65 72 73 78 70 75 59 58 116 131 124 117 114 115 114 115 116 113 116 115 114 115 111 112 114 114 113 113 113 113 112 110 111 111 109 110 112 111 112 110 111 111 112 111 110 109 109 109 109 108 108 117 96 76 46 81 84 67 89 59 65 117 82 153 120 82 90 84 67 43 61 43 37 63 116 29 72 107 53 18 33 41 37 34 30 29 42 29 41 37 56 49 52 61 57 49 49 44 29 32 18 20 24 33 24 30 32 17 24 39 21 29 29 26 90 112 117 122 60 54 65 68 78 75 81 99 93 92 95 81 87 74 74 69 55 58 47 146 127 121 115 114 113 113 116 115 116 118 115 114 113 113 114 113 113 112 113 113 112 112 110 110 110 110 110 110 111 112 110 110 109 111 110 110 109 109 108 109 109 101 111 84 80 91 64 91 90 84 43 122 97 112 85 49 20 59 49 86 57 46 45 28 124 91 66 79 63 23 31 19 35 35 42 22 39 29 47 50 27 33 46 47 49 42 50 42 36 26 22 16 38 40 24 24 31 17 26 25 33 37 36 36 29 51 84 127 105 65 98 101 82 90 72 47 37 38 35 38 38 36 32 22 27 49 61 64 136 123 117 115 116 117 118 121 110 122 118 116 114 113 113 114 113 113 112 111 112 111 111 110 111 113 111 112 112 111 110 111 111 111 111 110 109 108 108 109 107 108 72 69 51 70 58 57 103 74 55 121 112 69 73 44 23 67 42 60 41 38 47 41 75 150 75 84 80 28 48 47 29 25 31 34 51 39 56 53 30 45 44 39 33 41 33 33 39 38 34 34 41 35 48 43 64 17 17 50 49 47 41 49 55 60 33 27 43 40 38 36 33 27 36 43 39 46 34 37 42 48 46 39 27 24 46 92 136 125 122 116 116 117 122 129 64 133 122 116 117 114 114 113 113 111 112 111 112 110 112 109 110 111 110 112 112 110 111 110 111 112 110 110 108 109 108 108 107 71 86 128 121 98 94 79 80 55 28 130 94 64 68 66 33 52 103 69 44 28 26 48 24 100 61 90 46 31 31 25 32 37 28 23 38 46 39 34 21 29 37 34 43 33 31 24 27 36 57 73 20 19 49 53 32 18 24 37 39 18 11 19 20 32 15 11 32 44 41 46 37 40 49 50 40 45 54 58 57 52 56 64 50 34 27 62 147 132 126 120 119 122 130 122 34 110 128 120 118 116 113 113 114 115 112 112 111 111 109 110 111 110 111 112 111 111 111 111 111 110 111 109 111 109 108 109 109 93 111 128 103 111 108 116 120 43 42 80 110 96 102 116 111 191 188 75 69 105 20 37 40 44 104 85 44 31 39 48 31 37 26 48 19 32 45 43 20 33 34 42 48 52 49 32 31 27 22 18 23 16 18 19 16 12 9 19 23 27 26 22 30 26 27 19 43 45 41 36 46 32 30 36 40 38 47 42 54 55 71 78 48 57 28 20 61 132 129 125 122 130 135 95 44 64 140 127 122 117 114 115 113 114 111 113 110 111 110 110 111 111 110 111 110 111 111 111 110 110 111 110 110 109 110 111 107 76 71 64 90 104 129 105 128 99 77 65 135 137 93 108 49 70 49 45 45 117 33 41 55 47 55 48 28 40 50 42 56 49 56 35 24 36 49 52 23 46 22 46 43 63 67 31 32 27 13 19 20 20 18 23 18 11 19 23 26 27 36 31 31 30 33 40 42 41 47 43 45 51 51 69 50 54 66 54 53 52 73 73 51 55 54 33 16 138 134 131 129 132 118 45 62 59 68 136 124 116 114 113 114 112 113 111 110 111 110 111 110 110 110 110 112 111 111 111 110 109 109 109 110 110 109 108 108 92 72 87 81 101 83 121 121 134 13 17 42 24 60 51 44 68 69 54 12 16 18 37 90 165 89 55 45 43 55 58 47 55 44 22 42 36 36 36 34 46 30 31 35 54 41 42 42 28 16 26 34 30 48 52 34 14 34 45 47 29 37 45 30 55 49 33 36 48 63 57 57 44 62 35 50 59 36 71 57 54 68 81 55 62 57 54 5 68 144 134 136 139 67 49 118 50 31 128 126 119 115 114 112 111 111 112 110 111 110 111 110 110 109 111 110 110 111 111 109 109 109 109 109 110 111 107 108 72 67 49 79 122 114 122 89 101 14 31 62 91 102 57 92 75 65 50 45 28 33 51 35 8 11 10 15 31 48 46 37 52 32 26 36 19 38 25 40 22 39 29 40 55 51 37 36 25 27 32 43 42 48 52 18 17 40 50 55 75 54 33 53 47 38 34 51 38 46 46 59 47 64 64 45 53 39 67 53 51 66 82 53 54 52 56 19 8 37 146 143 138 45 56 32 50 50 68 131 120 117 112 114 112 111 111 113 112 111 111 110 109 110 110 110 112 112 111 111 109 109 109 109 110 101 110 109 112 95 37 62 104 90 94 73 39 27 34 35 34 35 20 29 33 40 23 37 12 11 11 17 16 13 16 18 43 75 101 35 24 30 16 41 23 27 24 29 28 36 29 29 43 49 39 24 40 29 40 27 43 40 41 16 25 28 51 43 50 63 38 53 37 53 37 48 51 44 49 61 32 59 54 35 66 30 66 55 51 65 77 51 53 50 62 36 21 10 59 156 153 45 39 47 53 41 88 131 122 116 113 113 112 112 112 113 111 112 111 110 110 111 111 112 111 111 110 110 110 109 110 109 104 105 110 106 89 82 66 84 104 153 91 107 34 25 19 21 48 30 52 57 55 66 24 14 18 21 22 30 32 35 54 54 38 65 100 41 40 52 34 27 24 20 24 45 27 41 44 18 54 40 37 34 36 30 52 33 37 44 38 17 32 43 72 38 48 38 55 33 40 42 37 51 56 48 47 62 48 75 58 76 77 70 64 55 52 75 81 54 55 53 63 57 42 25 15 51 158 41 49 48 50 39 89 132 123 118 112 112 112 112 111 112 110 112 112 109 110 110 110 111 111 111 110 110 109 108 107 107 109 100 97 102 22 53 32 76 108 132 111 132 80 36 30 73 47 39 45 42 42 45 47 23 41 39 42 37 41 33 52 37 56 78 50 42 41 42 44 20 20 34 35 35 25 53 21 40 32 67 44 36 42 31 62 22 29 45 34 16 38 44 67 43 41 45 36 60 40 64 38 57 61 55 51 59 35 60 56 61 80 47 75 52 56 74 71 53 58 60 65 55 61 44 35 43 116 59 65 59 49 48 86 135 124 117 113 112 112 111 111 111 109 111 111 110 110 108 106 106 107 106 105 104 105 105 107 109 109 103 93 104 16 13 12 10 16 44 49 114 50 27 18 45 50 35 45 35 33 46 18 22 30 40 40 36 23 36 56 32 54 35 45 30 46 39 43 26 26 43 35 41 26 21 32 50 59 22 58 41 37 34 49 29 47 47 12 41 42 44 47 55 51 26 47 31 55 58 39 50 62 48 52 63 54 64 57 70 77 85 66 56 57 67 82 50 57 63 64 47 60 54 52 59 76 89 79 62 63 52 73 141 128 120 116 114 115 111 109 109 107 106 106 106 106 106 108 108 107 107 109 110 109 107 110 111 115 98 107 90 10 16 17 11 15 12 25 88 66 38 27 27 43 25 39 39 32 43 26 30 19 31 40 43 25 34 39 40 70 71 44 56 43 43 46 23 14 59 39 39 25 49 39 30 76 26 33 50 40 34 60 22 54 44 12 48 38 34 70 36 11 40 37 40 75 60 33 58 43 48 39 53 47 42 49 42 43 35 49 52 52 62 78 46 68 65 62 54 57 51 57 53 101 207 148 69 49 37 32 121 124 116 113 109 109 111 114 113 112 110 112 113 112 111 110 111 110 110 110 109 107 109 110 112 111 107 103 93 10 23 22 10 20 19 28 95 56 36 29 37 31 31 33 34 28 51 22 34 32 25 34 38 23 26 31 72 48 56 57 20 27 46 34 27 15 25 32 33 22 21 24 30 43 50 25 30 39 30 51 42 52 47 10 59 44 31 71 36 20 42 47 32 59 43 36 70 46 47 45 47 52 45 51 47 55 58 54 56 61 66 67 53 42 61 63 57 54 44 51 70 100 204 137 70 57 49 33 128 133 125 119 117 115 114 113 114 112 111 113 114 112 111 109 110 109 107 107 108 106 107 109 109 94 105 90 94 14 9 9 10 18 12 24 97 48 32 34 29 27 39 34 42 25 38 21 42 28 33 32 45 31 31 30 55 39 25 37 22 43 47 54 32 44 30 60 41 34 26 21 29 40 43 24 21 44 35 41 37 35 38 10 66 39 29 57 12 41 41 49 37 56 51 40 72 70 61 62 67 65 57 48 52 47 55 57 57 49 64 64 55 54 45 65 54 45 55 55 76 73 94 80 60 49 45 33 132 133 125 120 117 114 112 111 112 113 110 112 111 112 111 112 111 110 111 111 111 111 112 113 117 111 107 89 89 17 15 12 12 13 10 26 119 23 37 51 10 26 45 36 21 36 53 22 43 23 40 46 39 41 59 41 33 38 39 49 29 24 25 34 32 11 22 20 25 33 39 34 30 43 45 35 24 32 30 28 37 53 42 13 36 32 26 43 43 58 69 42 34 50 49 32 67 62 46 44 45 45 45 47 46 50 41 42 52 52 63 87 42 56 55 61 52 55 57 55 59 55 59 64 52 46 35 44 73 120 129 121 118 116 114 115 114 111 111 112 112 111 110 111 112 112 110 108 109 110 111 114 115 107 114 106 74 9 20 15 11 9 11 36 70 27 41 49 18 23 55 49 37 33 49 21 49 36 60 45 57 61 29 31 28 36 21 27 35 21 23 24 31 15 28 28 44 23 22 20 26 32 34 36 33 17 33 39 35 54 44 11 46 26 38 14 37 44 40 40 31 46 43 33 68 55 55 53 51 46 47 51 38 34 45 43 48 49 60 62 45 52 49 56 41 50 61 53 57 49 49 57 47 40 33 41 99 106 128 123 121 115 115 113 113 114 114 113 112 111 110 109 110 109 108 112 114 116 116 118 121 126 90 121 50 8 13 19 6 19 9 69 92 27 37 43 20 51 29 47 55 54 63 21 32 56 22 24 32 31 23 34 47 40 28 37 26 14 26 26 30 10 28 29 34 27 28 33 40 46 44 30 40 17 48 37 46 44 29 6 68 37 29 34 53 58 47 42 42 42 47 36 66 52 52 44 48 27 58 38 56 67 43 67 71 96 83 63 50 37 48 49 46 47 43 50 55 39 42 42 47 33 32 39 101 117 132 127 85 112 115 114 113 114 113 114 114 117 115 114 113 113 113 114 116 120 123 129 133 124 92 114 43 10 13 11 11 24 13 90 106 20 49 52 44 106 28 63 73 72 56 19 60 34 26 24 39 53 48 54 45 50 30 45 16 21 20 41 33 43 29 20 38 29 36 33 36 47 40 28 39 28 24 78 5 57 23 5 79 37 13 46 31 44 54 55 39 62 53 28 51 77 73 41 59 50 72 62 42 70 42 76 63 92 78 66 43 48 45 55 35 45 48 42 41 39 38 40 41 35 42 35 102 133 119 117 118 121 120 120 120 120 122 123 122 122 121 118 118 118 121 121 126 131 65 54 43 47 47 51 16 12 13 22 14 27 8 92 96 21 41 47 24 12 50 31 40 47 72 64 39 44 29 33 45 47 34 53 51 53 38 29 26 25 25 15 51 19 24 29 31 20 29 30 48 57 46 27 44 29 23 35 36 55 21 6 49 31 14 43 44 40 55 55 54 46 54 38 48 76 70 49 58 32 65 57 45 68 32 56 62 91 73 76 42 51 57 56 37 44 47 51 46 56 47 35 33 45 48 36 102 116 131 130 130 127 127 126 127 127 132 128 126 104 121 128 123 120 127 138 107 25 37 26 65 42 30 15 18 10 15 15 14 28 35 42 62 19 35 47 37 37 41 34 38 65 30 15 34 14 26 40 26 15 40 46 57 51 35 35 14 30 23 29 12 27 34 29 26 31 42 35 47 65 50 28 47 25 34 23 54 43 13 13 87 31 18 54 33 35 43 38 20 54 51 35 61 48 44 47 70 58 52 51 66 72 74 73 60 63 57 62 41 46 51 52 34 44 39 41 37 45 27 36 33 39 32 32 76 126 104 122 136 134 134 136 145 124 135 90 60 58 105 127 134 140 138 69 42 65 39 83 37 33 45 26 45 8 21 11 10 15 8 69 45 38 64 55 13 11 50 21 59 19 33 22 41 26 55 33 27 26 44 40 56 51 36 41 34 21 134 17 20 15 24 30 38 20 32 36 45 65 51 33 53 28 32 44 18 80 7 24 79 22 29 64 62 50 30 48 38 57 53 30 51 36 32 48 81 32 64 48 49 71 40 69 56 57 58 56 44 50 48 48 37 47 41 41 34 59 35 33 34 46 52 61 81 105 93 116 135 83 87 92 69 82 68 56 82 74 79 85 124 114 49 48 53 47 61 13 27 23 11 24 17 23 42 7 15 17 5 80 67 31 59 67 13 17 54 32 13 54 60 23 41 77 41 46 32 31 31 52 56 50 34 39 7 113 53 91 11 16 28 27 22 15 28 35 51 57 33 23 39 27 27 52 18 44 7 36 55 14 34 76 58 23 51 64 34 64 57 35 49 41 42 46 76 48 69 54 72 67 69 57 54 50 67 61 39 42 46 54 35 40 46 44 30 39 44 36 41 47 35 36 63 116 120 136 55 80 78 74 112 51 46 70 64 64 70 64 102 46 42 43 49 35 21 19 26 15 11 27 21 16 25 67 36 28 9 66 27 35 57 41 25 60 93 18 38 32 56 19 166 102 45 48 35 55 35 44 65 53 34 38 9 8 23 26 13 18 26 22 28 21 36 38 47 49 42 41 61 29 35 44 32 12 11 49 51 11 28 68 45 69 57 64 36 92 74 35 61 50 51 52 51 66 52 66 55 45 42 48 56 53 61 59 37 46 45 46 31 41 39 39 30 43 34 37 33 27 68 85 20 63 70 59 60 83 73 70 71 53 45 73 84 63 60 48 59 55 51 39 22 18 20 16 49 19 38 18 23 26 58 61 42 37 22 115 73 27 42 38 12 19 21 41 46 43 52 27 46 36 56 47 37 39 61 37 38 31 40 62 25 9 25 60 4 29 44 29 72 19 23 49 58 54 58 28 30 28 33 37 40 11 10 49 18 8 22 31 38 37 44 63 29 65 35 37 96 72 71 70 60 57 67 65 71 71 74 79 69 57 59 50 51 38 42 57 31 41 44 39 33 38 26 36 28 24 27 19 31 59 51 102 90 92 85 41 72 73 62 71 73 39 42 31 29 36 45 44 27 33 38 27 61 16 12 13 23 31 5 6 20 37 42 34 32 30 46 53 17 12 71 59 45 57 46 28 47 39 37 37 68 19 35 42 21 27 54 49 23 34 35 89 6 44 43 77 88 46 46 45 40 49 45 40 43 33 50 57 66 15 25 29 14 21 5 74 69 72 70 83 26 78 60 84 205 223 53 64 56 45 53 53 48 41 41 53 48 42 40 34 41 51 52 41 28 45 43 38 31 26 29 36 36 31 31 29 45 43 57 84 106 101 103 45 79 68 50 63 36 25 46 29 30 34 44 46 39 62 64 88 30 26 16 17 13 31 27 26 11 7 41 39 28 38 46 46 18 15 47 46 58 67 59 52 32 33 55 48 20 92 125 139 97 78 83 18 44 119 95 119 12 48 113 37 42 57 53 39 46 36 28 14 27 30 33 29 19 12 13 26 8 6 9 54 29 26 44 62 24 57 34 31 53 52 64 54 50 65 53 69 66 50 71 43 42 37 43 39 37 35 35 40 17 34 34 34 27 25 26 28 31 28 38 25 69 95 53 47 55 53 87 49 43 56 40 53 17 51 62 29 27 43 35 48 45 57 160 130 15 14 22 44 20 21 19 17 16 13 8 26 34 18 57 46 14 18 60 50 39 38 61 37 57 78 26 41 109 127 107 117 107 58 17 57 151 55 20 82 11 27 47 28 29 20 11 34 41 42 37 69 69 24 27 36 26 13 13 21 10 9 8 53 51 57 79 71 19 76 50 30 60 45 49 42 53 28 48 48 37 52 30 40 40 52 52 40 42 47 37 32 22 36 55 32 32 22 28 74 33 30 40 27 42 115 57 56 48 53 100 66 56 37 34 44 38 45 75 27 28 40 21 32 23 16 11 8 165 230 25 50 55 15 16 30 14 16 10 24 14 34 40 44 27 23 38 44 68 86 44 35 40 44 71 114 111 100 105 74 22 32 109 129 75 71 50 93 4 24 31 18 41 93 12 27 23 22 34 84 80 24 24 32 24 20 5 47 9 7 13 59 38 65 120 76 16 51 42 26 48 47 51 40 52 26 47 50 35 50 28 55 34 28 41 52 48 43 41 49 20 33 39 39 49 40 24 14 33 39 40 14 91 91 57 57 49 49 100 67 48 42 33 36 24 61 82 32 25 28 24 30 5 3 14 10 177 241 47 16 53 135 136 94 147 146 133 157 66 19 37 19 13 15 59 93 49 24 35 69 110 112 122 124 117 107 96 77 88 125 125 126 129 75 43 89 14 17 45 16 41 105 36 35 13 12 15 14 36 20 27 24 22 36 11 8 6 6 15 55 46 30 42 43 20 77 50 26 47 40 40 61 60 79 55 80 78 53 78 44 26 21 31 36 52 54 49 47 21 42 51 31 49 42 30 26 25 46 91 41 69 96 32 51 35 50 100 41 41 43 29 33 20 22 54 25 21 30 62 41 23 13 7 18 142 201 48 23 25 128 113 81 145 152 111 74 56 44 15 29 14 49 67 17 41 78 125 131 125 125 124 126 121 126 126 126 126 127 128 125 131 137 149 76 9 58 145 64 92 72 56 79 75 55 34 16 27 45 28 69 52 15 12 9 4 6 20 89 66 41 39 59 35 77 55 89 65 56 47 67 39 24 47 46 36 39 35 50 44 43 47 47 41 43 40 39 18 37 46 25 46 33 40 30 36 44 85 43 65 53 36 32 22 32 81 43 32 54 39 20 22 25 115 50 41 21 33 33 40 88 81 91 31 24 26 30 23 128 63 36 106 77 87 56 33 22 19 37 41 16 57 109 122 129 126 123 121 120 119 119 120 120 121 125 123 122 121 122 123 128 134 140 5 48 99 77 76 94 84 109 142 147 153 161 161 160 165 160 166 12 12 9 6 18 45 43 39 40 7 3 46 68 27 26 21 31 70 85 62 65 69 52 41 40 25 43 37 81 93 62 42 40 40 47 33 42 47 19 56 44 43 57 93 69 67 63 39 71 93 86 102 78 103 108 85 95 78 56 61 72 52 16 14 6 5 78 94 57 60 44 65 21 37 27 26 126 52 29 63 75 38 6 19 22 36 19 59 86 126 128 127 122 120 118 118 116 118 117 118 123 90 100 120 115 112 119 123 124 128 127 6 63 136 120 97 110 131 134 133 128 100 102 117 129 123 78 53 19 13 11 8 16 51 134 145 143 146 146 74 121 101 74 90 100 113 36 45 48 35 33 36 43 83 132 116 156 113 117 43 80 57 43 29 97 137 128 133 128 109 125 122 136 94 107 101 103 101 107 92 74 75 67 72 80 83 102 115 106 85 62 39 31 25 36 19 16 20 35 21 49 38 59 59 118 44 20 49 8 18 24 28 32 44 16 17 97 129 124 122 120 119 117 117 115 118 117 119 102 103 87 95 54 72 116 120 121 128 118 3 64 141 137 111 139 128 131 115 77 59 65 64 91 87 49 27 23 11 13 5 10 9 63 116 122 125 123 76 131 129 114 124 95 66 76 62 59 60 65 84 112 143 158 161 157 132 71 116 89 53 60 61 134 150 142 136 143 148 150 135 122 126 125 113 100 88 68 58 49 67 74 72 74 70 67 78 75 78 91 99 104 105 103 7 2 25 1 5 50 48 114 139 102 99 51 55 72 71 35 75 121 173 24 15 125 127 121 119 115 114 115 115 116 115 117 118 121 124 126 125 125 125 123 122 126 129 108 3 66 139 133 108 133 128 123 90 44 38 40 80 68 63 88 108 16 10 134 129 131 127 122 118 117 120 118 73 128 125 128 131 126 131 134 138 130 98 57 30 33 34 51 63 72 83 100 115 128 142 133 122 114 108 103 98 71 60 57 58 49 45 44 49 55 63 76 79 81 79 79 78 80 86 89 90 92 94 90 88 89 71 60 17 22 30 32 32 47 99 96 99 113 118 124 132 145 67 34 67 116 156 16 17 133 122 116 113 111 112 110 112 115 113 114 114 113 115 117 120 119 117 116 114 121 126 90 2 64 131 123 104 127 103 114 123 130 126 123 119 125 124 129 97 14 9 124 131 126 125 123 118 120 125 115 75 126 113 122 110 125 129 134 139 135 135 141 153 91 63 48 40 45 47 51 50 51 47 48 52 49 50 52 50 52 57 63 69 75 77 81 83 86 83 81 77 83 84 86 85 86 85 89 94 88 89 85 70 52 53 57 62 67 65 63 64 64 112 104 106 110 115 118 123 136 67 34 67 110 142 15 21 127 109 102 100 96 103 102 103 103 99 100 100 101 102 99 102 104 103 106 104 107 117 74 6 66 124 119 101 120 48 77 116 116 114 113 111 110 110 107 77 46 37 70 110 115 110 110 112 108 111 93 74 120 119 113 127 132 133 133 125 118 109 105 114 100 81 65 63 61 56 51 51 53 53 57 60 63 66 68 67 75 82 87 92 92 93 88 86 87 86 88 89 92 94 89 94 91 91 87 86 83 80 65 52 51 59 60 64 61 55 57 48 73 125 25 27 104 105 110 116 127 64 32 66 110 134 17 25 130 115 109 107 105 103 101 103 105 101 101 102 100 97 99 98 96 99 101 103 106 116 58 3 70 128 125 108 130 63 106 121 119 113 116 112 110 111 112 114 112 99 93 99 103 110 110 111 113 117 104 93 117 109 105 99 98 89 79 84 91 98 103 99 99 96 74 71 64 60 60 59 61 64 68 70 69 71 76 81 90 95 97 96 96 88 89 90 95 94 94 93 93 90 91 88 86 85 83 81 65 50 50 55 60 58 58 53 56 57 56 71 86 116 90 88 101 106 107 113 122 59 33 67 109 125 17 24 125 113 108 106 104 102 101 101 100 100 101 100 102 102 101 102 106 105 109 111 112 113 62 59 70 67 72 62 56 44 56 103 126 121 117 115 116 113 116 117 117 119 119 116 116 118 122 121 121 114 111 104 108 106 96 99 74 81 103 103 93 89 72 61 48 46 53 55 58 58 60 60 62 64 65 64 65 78 84 86 91 95 90 85 85 92 93 93 94 94 94 90 88 88 88 85 83 79 72 52 47 56 60 61 60 55 60 64 63 58 67 93 79 117 113 106 101 102 106 108 119 108 22 53 106 120 20 21 120 109 104 103 101 102 102 103 104 103 103 105 104 106 107 108 112 114 118 123 110 77 93 82 37 63 35 59 74 57 50 29 59 111 100 121 119 120 123 125 125 124 119 106 100 92 89 99 97 98 107 102 99 111 92 80 72 54 40 40 42 45 50 50 50 56 55 59 59 56 60 61 57 59 64 74 78 83 86 79 78 80 85 92 96 94 91 95 94 91 90 88 86 81 81 80 84 74 50 46 54 59 57 53 61 69 58 54 50 63 91 115 89 114 109 103 95 97 99 104 111 113 27 60 87 104 16 22 112 105 102 104 101 102 104 103 104 105 106 106 106 109 111 113 116 119 128 96 87 88 84 78 48 31 27 57 27 29 38 38 36 21 17 36 115 103 96 96 93 102 100 111 118 114 109 97 101 84 75 56 46 38 37 40 45 47 50 47 49 51 51 52 51 56 54 55 53 56 56 61 66 71 76 76 78 75 76 85 90 93 98 99 95 95 95 90 89 83 79 80 78 75 70 75 61 43 44 46 51 52 41 50 55 54 48 50 86 102 125 116 89 107 109 99 96 96 99 102 108 110 27 65 81 94 51 49 95 99 101 102 102 104 104 106 105 106 106 111 113 111 115 124 117 90 65 46 46 58 49 58 107 55 21 24 23 13 9 4 7 4 6 23 117 136 127 110 99 98 94 83 77 62 50 42 34 36 40 43 44 45 45 49 51 47 51 51 53 53 53 54 54 52 51 54 61 64 65 70 73 72 71 73 80 83 84 89 101 104 105 103 98 95 95 90 87 84 84 73 66 70 69 51 44 46 44 53 55 68 64 63 55 55 55 79 98 119 117 114 97 103 99 99 98 99 102 105 109 120 26 66 84 120 115 112 108 105 108 106 105 107 109 108 109 110 108 109 112 118 103 63 46 57 54 36 38 33 31 26 9 6 6 4 6 6 5 5 4 4 4 6 78 90 68 65 57 46 31 33 32 36 38 38 40 44 45 47 48 52 47 51 52 50 51 50 52 51 52 52 55 56 58 60 62 62 61 64 67 72 75 76 81 83 85 93 99 103 106 103 97 88 91 89 90 89 86 83 82 57 41 40 49 46 53 57 55 68 53 54 57 58 67 84 97 125 117 109 103 103 106 96 100 104 104 106 109 110 27 64 75 122 114 110 112 109 107 107 107 107 100 108 112 111 100 97 91 146 147 56 62 108 204 204 67 6 3 7 4 4 6 4 5 4 4 4 5 38 22 15 41 36 37 35 36 35 34 34 40 40 42 49 47 51 49 48 51 51 51 52 53 52 50 50 56 56 58 57 59 58 60 59 59 63 65 69 70 69 71 77 82 85 86 93 94 98 95 86 83 88 91 88 89 89 94 87 63 40 43 48 52 54 59 59 49 53 59 69 66 67 66 75 95 106 100 110 105 101 107 95 105 109 110 111 116 114 24 67 86 119 117 115 112 107 99 92 79 73 76 78 83 88 101 109 121 70 16 13 33 22 36 7 5 3 19 44 16 5 1 4 2 2 6 10 4 17 19 35 35 35 35 37 40 39 39 41 42 43 43 43 44 48 50 51 48 46 48 51 55 55 57 57 55 55 56 55 56 54 59 60 63 63 59 60 64 69 74 77 83 84 87 99 107 96 85 91 93 90 88 94 101 101 84 58 38 43 48 52 62 57 50 50 57 64 77 69 67 76 73 93 118 107 99 97 103 109 108 90 99 90 89 94 98 92 28 71 72 89 86 83 78 89 95 100 107 121 121 121 121 117 117 123 118 116 5 1 2 3 2 3 5 3 29 51 21 6 2 1 4 6 5 8 7 9 16 26 28 37 37 39 58 69 55 36 39 43 45 45 43 42 44 47 53 55 54 54 55 55 50 50 51 55 55 59 57 57 58 59 59 58 65 68 70 75 76 80 82 89 98 88 81 86 90 86 92 96 96 100 93 70 54 45 49 47 49 60 59 72 56 55 66 77 65 75 71 86 98 113 113 107 101 103 108 111 113 107 95 94 99 104 110 103 30 70 77 132 122 126 125 120 117 123 122 124 120 101 111 107 97 73 69 63 49 18 2 2 10 10 7 4 6 25 7 8 7 11 13 20 25 30 32 36 53 76 69 65 79 53 39 40 45 41 42 42 46 45 51 51 55 55 52 53 53 51 53 51 54 51 54 56 54 55 55 56 55 55 58 62 64 66 67 71 74 79 84 89 85 87 85 87 91 91 93 95 93 91 64 65 75 61 58 49 52 75 83 62 64 62 63 59 61 56 74 104 113 109 112 103 101 103 100 97 114 109 90 99 110 99 113 123 57 92 92 120 117 110 105 107 96 86 74 68 49 50 41 32 36 36 39 40 29 16 7 6 4 12 11 13 18 24 27 29 49 62 60 69 77 83 90 83 51 45 40 38 39 42 43 39 44 45 49 55 52 51 50 52 50 50 49 51 50 53 52 55 53 55 52 54 53 56 56 61 59 61 63 62 62 60 63 65 76 86 85 91 86 91 89 95 99 102 98 96 86 61 74 76 62 54 49 51 69 70 60 52 54 47 77 68 81 77 108 111 105 109 103 103 100 90 100 96 99 97 104 104 105 100 98 96 58 80 65 55 45 33 31 28 34 40 41 43 45 45 47 46 47 48 49 47 40 39 39 49 74 86 87 95 97 110 115 129 131 129 126 115 109 65 37 39 40 39 39 42 41 42 49 46 48 47 47 48 47 46 47 50 51 49 51 53 54 53 54 54 55 56 53 55 56 55 58 56 58 59 62 57 58 66 68 79 80 82 80 85 92 90 96 96 96 88 85 78 63 55 52 43 46 45 60 59 58 51 49 55 58 66 58 65 66 88 89 115 108 105 107 104 103 105 103 101 100 103 42 33 28 26 27 33 36 32 34 38 34 31 31 33 37 39 45 42 41 39 40 41 40 48 78 82 85 87 98 105 124 121 127 126 118 121 86 43 44 35 35 36 38 37 40 39 41 45 49 51 46 48 48 47 45 43 44 47 48 46 50 51 50 51 52 51 52 55 54 52 54 55 54 55 54 52 54 53 52 51 56 61 67 72 76 80 81 83 87 92 88 83 83 77 63 48 46 38 37 42 42 49 53 53 58 53 58 67 71 68 62 63 60 63 67 92 106 118 115 103 107 110 105 101 104 100 105 95 114 115 116 117 111 127 108 132 140 132 111 112 123 135 133 106 88 95 107 119 123 120 116 120 122 122 103 100 110 108 112 95 74 54 45 41 38 38 39 38 37 39 39 40 41 45 44 47 46 45 46 45 40 42 42 44 44 46 46 48 48 49 49 52 50 53 53 55 53 54 53 51 51 53 52 54 53 54 55 61 61 63 69 73 76 75 78 82 82 82 72 60 50 43 42 44 43 47 43 57 57 65 70 73 81 81 81 78 66 57 56 56 76 94 103 106 121 112 101 100 104 102 98 104 101 97 96 89 114 108 100 89 76 61 64 48 52 85 119 122 126 127 128 131 134 136 135 141 141 144 145 147 150 142 109 82 58 43 43 42 40 39 39 40 38 40 40 37 39 39 41 41 39 40 37 41 40 45 43 41 45 43 46 43 47 42 47 48 48 54 50 52 53 50 52 53 53 54 52 51 53 50 52 56 58 55 58 60 63 67 68 67 65 66 69 66 57 44 40 46 45 47 50 51 49 47 65 63 70 84 84 80 71 69 63 80 76 70 73 124 123 123 119 115 114 99 98 96 101 107 104 104 100 96 96 90 85 94 104 121 125 129 125 132 128 128 128 128 129 123 130 130 128 130 132 124 104 84 72 59 47 38 34 42 39 41 45 48 47 41 41 38 43 41 37 40 38 41 39 44 44 42 41 44 45 46 47 46 46 43 46 48 50 50 48 49 52 53 53 55 51 53 54 55 51 53 53 53 53 57 57 59 59 61 63 62 60 61 60 55 64 59 53 46 52 49 49 51 60 69 59 53 61 57 71 80 86 91 81 69 67 80 108 114 75 72 90 118 117 108 119 97 114 110 110 109 109 109 105 90 87 90 87 82 124 124 126 124 127 130 132 129 126 120 118 117 114 105 95 75 60 51 38 34 37 37 40 40 42 41 49 47 48 46 46 47 49 47 45 45 40 42 41 40 43 41 42 43 41 49 46 40 45 45 48 46 49 50 50 48 50 50 52 50 52 49 49 49 50 49 54 50 50 53 53 52 54 53 55 52 50 49 54 58 60 60 57 62 62 58 45 45 48 63 61 75 67 56 74 88 69 77 83 87 81 89 95 105 100 96 108 124 72 75 102 113 121 126 87 97 95 89 93 93 95 90 87 78 83 87 83 87 117 114 111 86 89 110 110 103 90 73 69 54 42 35 37 38 40 39 41 41 41 41 45 45 45 47 45 48 45 49 54 53 48 46 44 45 45 43 44 39 39 42 43 45 43 45 48 46 47 46 44 45 49 48 49 51 50 49 48 49 48 47 51 51 49 48 47 51 56 53 50 50 54 48 46 50 50 52 52 55 61 48 45 50 47 45 49 51 56 64 71 57 59 77 82 91 89 85 87 102 109 99 111 99 113 119 122 130 75 76 101 129 119 109 103 99 105 100 101 93 89 89 98 93 89 82 85 91 77 82 83 78 71 54 39 34 36 40 38 41 39 41 42 43 45 49 46 43 45 43 45 49 51 48 47 45 45 44 43 48 43 38 40 39 37 39 40 43 44 44 46 47 45 42 46 48 47 48 51 50 46 47 48 47 45 48 51 52 49 50 51 52 53 52 53 48 47 50 48 47 48 45 46 49 47 46 52 55 50 46 49 51 55 56 67 73 72 78 77 59 66 101 112 107 83 95 87 85 93 97 126 119 120 122 127 123 88 88 92 85 83 88 87 99 94 99 98 95 93 91 88 88 92 95 95 92 41 44 44 43 41 37 33 34 37 37 38 40 40 43 41 41 42 45 49 48 50 49 50 48 46 44 43 43 44 45 46 48 43 41 39 41 41 44 41 39 41 45 44 43 43 47 48 47 54 48 46 53 50 49 48 50 51 49 53 52 51 52 50 48 48 48 48 48 48 45 42 44 48 50 51 47 50 50 51 43 38 45 45 49 51 53 49 62 72 79 55 66 105 95 83 73 83 94 74 98 104 100 83 96 93 91 107 97 90 94 110 107 105 107 101 102 102 96 100 100 101 95 96 97 98 98 88 90 42 44 40 43 43 39 37 35 36 39 40 42 45 47 47 48 50 49 47 47 48 48 48 48 49 47 49 48 46 42 43 44 42 43 44 44 45 44 44 42 43 46 45 49 51 53 47 45 44 44 46 45 45 48 48 47 45 47 45 45 45 44 44 46 42 50 51 47 43 43 46 45 45 48 52 52 46 45 44 46 47 47 53 57 56 69 87 110 87 61 77 90 88 99 105 99 80 81 90 90 112 119 106 96 99 112 112 100 70 92 99 100 97 103 107 103 97 96 93 95 95 95 96 100 93 94 90 93 41 40 42 39 39 39 38 40 42 43 46 46 45 44 45 46 48 45 47 45 47 46 47 45 46 45 46 47 46 45 48 45 46 46 44 45 48 48 48 48 49 48 45 44 45 42 45 47 49 48 51 46 47 44 44 42 44 41 45 42 41 43 47 46 40 44 39 38 42 42 44 43 42 45 48 42 45 44 47 43 49 54 54 62 80 115 126 87 72 77 85 106 104 105 111 115 86 83 90 107 105 109 105 114 113 112 122 94 75 84 102 106 100 101 113 111 97 100 96 90 94 98 81 83 86 84 83 83 43 43 43 44 43 44 41 41 40 43 41 43 43 45 43 44 43 46 45 44 46 45 44 47 45 45 49 50 48 49 50 49 46 47 46 45 46 44 47 41 45 47 45 46 43 43 39 38 41 39 40 42 44 40 41 43 40 38 41 40 44 45 43 43 41 41 39 41 40 41 44 47 46 43 43 42 40 42 44 57 66 96 124 132 135 93 72 79 79 95 135 125 126 114 125 97 83 78 86 108 115 113 109 111 113 108 90 94 86 98 109 107 100 110 110 104 98 107 88 93 94 91 88 95 85 81 85 95 44 46 42 40 41 39 40 40 44 43 43 46 45 46 45 47 48 47 47 48 49 46 47 49 51 46 49 48 51 49 52 51 52 50 49 51 46 46 42 45 43 46 43 42 39 38 38 37 37 39 41 39 37 37 35 35 34 38 41 41 42 38 39 38 40 38 41 40 42 43 44 49 48 49 42 56 60 70 72 93 111 123 105 102 81 72 84 85 82 97 105 101 122 119 110 105 104 85 92 93 115 117 116 105 113 104 91 91 91 97 104 100 108 98 106 95 94 93 100 96 96 87 93 94 98 101 96 80 42 43 42 42 41 41 41 39 41 41 43 46 47 43 46 48 47 49 47 49 48 49 50 47 48 48 50 51 48 51 51 48 50 48 45 43 42 39 40 38 37 41 40 37 41 39 41 40 38 38 36 38 36 37 37 40 40 37 38 41 38 34 35 37 37 43 44 43 46 44 42 40 40 51 81 80 81 83 114 115 122 111 73 74 80 84 76 79 98 108 103 106 106 116 120 122 111 91 96 87 99 113 120 103 93 90 101 92 93 95 106 104 93 78 91 101 88 91 90 90 88 84 86 88 81 90 88 88 44 42 43 41 40 42 41 41 41 42 42 42 47 43 50 47 50 49 47 48 47 48 47 45 47 47 47 49 48 44 44 45 40 41 40 40 36 39 35 35 36 36 37 37 36 39 33 34 34 34 34 35 38 38 38 35 32 36 34 33 35 33 39 42 43 42 42 42 40 38 41 64 91 117 109 78 85 90 138 137 140 90 76 88 91 74 91 110 100 103 106 102 108 110 115 117 120 94 87 84 81 112 100 108 103 108 108 113 90 96 103 107 103 106 106 94 98 98 99 93 89 95 92 89 86 85 95 95 43 43 42 43 39 42 41 42 44 43 42 44 44 45 44 45 45 46 46 45 44 44 45 45 43 45 44 42 41 41 41 40 40 40 41 40 40 36 38 37 37 33 36 32 32 30 31 31 31 31 33 35 33 31 36 36 31 36 38 39 41 42 42 39 42 44 40 42 39 69 110 128 134 136 96 83 73 116 128 107 75 70 94 95 79 98 125 121 120 108 114 111 113 112 112 112 120 97 86 86 87 92 125 116 112 115 112 93 79 72 96 117 113 108 103 103 97 97 95 97 96 92 88 101 102 91 92 80 42 40 40 43 41 41 42 39 41 42 41 42 42 41 44 45 46 43 42 44 44 45 45 43 43 43 42 41 43 41 40 39 38 35 36 41 34 33 35 31 29 30 32 34 31 31 32 34 32 35 31 32 33 33 31 32 34 36 36 40 42 40 41 43 43 41 40 58 81 108 103 125 127 124 79 83 88 143 121 74 71 106 80 91 83 127 111 120 115 112 112 111 109 108 103 106 110 105 94 74 92 97 105 87 107 111 108 77 82 108 115 114 102 106 99 103 109 101 95 94 91 99 96 98 86 81 89 88 41 42 42 41 42 41 44 41 41 41 42 43 41 43 42 42 42 41 44 43 44 45 42 42 43 44 41 40 42 40 41 41 41 40 37 36 35 31 30 30 29 29 29 29 31 32 32 31 30 29 33 34 32 28 27 34 42 43 43 42 41 41 41 38 52 68 108 106 122 107 104 116 127 113 81 83 100 133 85 81 122 103 82 85 129 124 116 115 111 114 112 109 109 104 116 106 96 105 118 102 96 97 86 101 100 102 117 98 74 106 111 109 103 98 106 98 85 85 92 91 93 99 94 86 91 92 88 90 40 39 40 38 39 37 38 38 40 39 41 38 42 38 42 40 41 41 41 39 40 40 54 59 41 38 38 37 37 37 40 38 35 36 31 27 27 29 26 28 31 26 30 31 30 29 29 31 32 31 29 27 28 28 31 28 34 36 41 39 39 42 69 107 94 101 120 121 120 123 126 128 134 92 89 93 119 90 82 108 110 88 92 125 121 118 113 111 110 111 112 110 101 91 84 107 113 112 112 86 99 99 101 105 105 112 105 95 95 108 116 108 107 99 98 94 91 102 102 95 85 98 97 87 98 100 96 102 36 37 38 37 36 35 35 36 38 34 36 37 35 38 35 37 39 40 40 39 38 39 55 62 39 38 36 38 37 39 36 37 35 31 33 31 28 31 31 30 28 29 31 27 25 25 23 24 24 24 26 25 26 28 30 37 41 38 45 61 59 74 69 94 116 115 116 116 119 104 98 91 117 72 77 87 89 83 108 105 78 90 114 120 114 108 111 106 102 110 101 110 114 79 103 111 113 114 112 114 101 103 97 107 102 115 100 109 94 105 107 98 98 93 88 90 90 93 95 78 82 80 83 95 96 99 99 102 37 38 36 38 38 36 35 37 35 35 38 35 35 38 36 36 35 36 38 40 36 39 36 38 38 37 37 37 38 36 36 38 35 35 31 29 33 29 29 31 30 29 23 21 19 19 20 22 24 30 34 35 34 36 37 42 37 73 100 107 109 116 117 119 121 118 116 114 116 118 120 122 92 81 72 72 77 101 115 81 86 122 120 112 105 97 107 115 106 95 106 112 113 117 107 103 110 111 114 108 114 109 113 65 64 84 101 109 104 100 106 94 86 81 69 68 84 88 84 95 86 80 85 85 89 90 101 89 36 36 37 33 32 33 32 32 33 37 33 37 38 37 39 39 38 38 38 36 34 36 40 39 39 38 36 39 36 35 36 34 35 36 35 33 35 33 30 30 27 27 24 27 29 29 33 39 41 47 43 44 42 41 49 69 98 105 113 115 102 121 120 118 115 115 113 114 113 118 112 111 77 77 73 85 103 117 94 87 109 119 115 112 111 110 107 108 113 112 110 107 104 111 106 110 113 114 114 109 113 109 92 81 68 87 119 108 92 96 94 100 99 94 88 87 91 89 86 79 85 80 69 84 76 69 74 75 31 33 30 29 32 32 32 32 33 34 35 36 38 39 38 36 35 36 36 37 36 34 34 36 34 33 33 34 35 33 32 31 32 30 30 30 30 27 27 25 26 25 29 30 32 38 40 42 46 45 43 45 54 87 105 122 110 113 103 102 94 113 115 116 109 108 111 112 111 111 121 100 84 85 102 111 119 96 97 106 110 105 110 109 109 113 107 110 109 106 90 117 104 107 111 108 100 110 107 114 110 90 57 68 71 87 107 104 88 91 98 93 103 87 87 91 72 76 80 74 78 85 69 79 87 77 85 68 