P3
10 10
255
152 167 0 154 167 9 162 174 26 165 177 29 174 186 34 157 170 15 181 193 41 180 192 42 168 183 26 155 171 4 155 171 4 155 170 11 186 0 47 175 189 36 156 170 15 167 182 25 165 179 24 169 183 30 172 187 30 159 178 11 172 192 27 137 156 196 156 175 18 149 168 11 154 173 13 144 162 0 160 178 18 145 162 6 176 193 36 156 176 13 161 184 28 153 176 20 162 185 29 151 174 16 155 177 18 149 171 12 148 170 11 178 0 41 178 199 42 152 173 16 152 177 34 166 191 45 171 197 48 161 187 36 150 174 22 165 189 35 164 188 34 172 196 40 152 174 21 155 177 26 169 196 0 168 196 0 195 24 0 180 6 0 178 4 0 173 199 0 172 197 51 156 182 31 170 196 45 175 198 52 160 187 0 190 19 0 182 12 0 168 196 0 169 197 0 146 174 39 159 185 44 180 7 0 175 0 0 166 190 50 171 198 0 179 8 0 175 5 0 162 192 52 178 8 0 197 24 0 173 1 0 172 198 55 169 195 54 175 199 0 187 16 0 182 12 0 178 9 0 158 189 44 172 1 0 186 14 0 186 15 0 172 198 55 170 196 55 176 199 0 158 186 49 173 2 0 168 198 48 172 2 52 169 199 53 164 193 49 159 186 41 173 0 53 151 178 33 156 181 45 